<?xml version="1.0" encoding="UTF-8"?>
<svg version="1.1" xmlns="http://www.w3.org/2000/svg" width="1024" height="1024">
<path d="M0 0 C337.92 0 675.84 0 1024 0 C1024 337.92 1024 675.84 1024 1024 C686.08 1024 348.16 1024 0 1024 C0 686.08 0 348.16 0 0 Z " fill="#FDFDFD" transform="translate(0,0)"/>
<path d="M0 0 C1.94061124 3.64834913 2.08201981 5.85555867 1.5625 9.9375 C0.44784546 12.09350586 0.44784546 12.09350586 -1.4375 13.9375 C-4.38070679 14.61938477 -4.38070679 14.61938477 -8.04052734 14.87890625 C-8.71077785 14.93166308 -9.38102835 14.98441992 -10.07158947 15.03877544 C-12.30461172 15.2101725 -14.53856134 15.35495285 -16.7734375 15.5 C-18.35209113 15.61627698 -19.93061719 15.73429746 -21.50901794 15.85395813 C-24.86623311 16.10511861 -28.22398759 16.34491782 -31.58267212 16.57559204 C-36.8074143 16.93460734 -42.03012663 17.31841521 -47.25268555 17.70776367 C-52.45129913 18.09452215 -57.6499425 18.48056369 -62.84922791 18.85820007 C-76.66136297 19.86286861 -90.45757786 21.00145882 -104.25 22.25 C-106.05842482 22.41087668 -107.86685557 22.57168663 -109.67529297 22.73242188 C-111.31090958 22.87979628 -112.94649164 23.02755479 -114.58203125 23.17578125 C-115.64241859 23.27068596 -115.64241859 23.27068596 -116.72422791 23.36750793 C-119.8796538 23.6594932 -123.00511769 24.01938448 -126.14208984 24.47192383 C-128.80604016 24.84828723 -131.33649084 25.0829462 -134.01953125 25.1484375 C-135.27564209 25.18807617 -135.27564209 25.18807617 -136.55712891 25.22851562 C-137.8901001 25.27008789 -137.8901001 25.27008789 -139.25 25.3125 C-148.07134682 25.64601028 -156.79513788 26.4131178 -165.5625 27.4375 C-166.68245361 27.56817871 -167.80240723 27.69885742 -168.95629883 27.83349609 C-174.15492062 28.38394003 -174.15492062 28.38394003 -179.26123047 29.4375 C-182.6529868 30.21675925 -186.10028614 30.39312618 -189.5625 30.65625 C-190.34641113 30.71905151 -191.13032227 30.78185303 -191.93798828 30.84655762 C-195.2831419 31.11444295 -198.6288956 31.37447368 -201.97460938 31.63525391 C-204.4207959 31.82704635 -206.86664318 32.02280494 -209.3125 32.21875 C-210.0667627 32.276073 -210.82102539 32.333396 -211.59814453 32.39245605 C-214.97759913 32.66355897 -218.17035396 33.03105192 -221.4375 33.9375 C-225.06285728 34.23891539 -228.68868673 34.44484559 -232.3203125 34.65625 C-235.34209982 34.73770382 -235.34209982 34.73770382 -237.4375 35.9375 C-240.20785983 36.36428516 -242.96949853 36.74601407 -245.75 37.09375 C-246.59232178 37.2009436 -247.43464355 37.30813721 -248.30249023 37.4185791 C-250.09790333 37.64571366 -251.89356706 37.87087415 -253.68945312 38.09423828 C-256.37206468 38.4293264 -259.05319467 38.77476634 -261.734375 39.12109375 C-270.96784654 40.29038586 -280.1372374 41.17368115 -289.43499756 41.60498047 C-294.62156647 41.85553793 -299.60209601 42.41928995 -304.6875 43.4375 C-311.19732642 44.63255779 -317.58001413 45.31336687 -324.1953125 45.6953125 C-331.10666936 46.21158253 -337.86266364 47.59333293 -344.625 49.0625 C-349.30500578 50.03339261 -353.66645272 50.09140475 -358.4375 49.9375 C-358.4375 50.5975 -358.4375 51.2575 -358.4375 51.9375 C-368.81031803 53.76033831 -378.85823458 55.50764005 -389.4375 54.9375 C-389.4375 55.5975 -389.4375 56.2575 -389.4375 56.9375 C-390.118125 56.97488281 -390.79875 57.01226563 -391.5 57.05078125 C-401.29259455 57.71490668 -410.73706254 59.53402999 -420.328125 61.54296875 C-425.38732692 62.60094651 -430.34682892 63.29718349 -435.50390625 63.69140625 C-437.44160175 63.73754402 -437.44160175 63.73754402 -438.4375 64.9375 C-440.81535838 65.10086432 -443.18178185 65.21724925 -445.5625 65.3125 C-452.4189371 65.66391542 -458.92453187 66.6584732 -465.64453125 68.1171875 C-469.62560532 68.97818189 -473.61727142 69.71488069 -477.625 70.4375 C-482.21557761 71.27632621 -486.74010598 72.23151163 -491.25 73.4375 C-496.22079013 74.73364689 -501.17607678 75.56156145 -506.25 76.3125 C-518.21786798 78.09132666 -530.01701177 80.71222633 -541.78881836 83.49291992 C-546.27248621 84.536234 -550.70300613 85.27659645 -555.27270508 85.82421875 C-566.21124687 87.15232395 -576.70763176 89.60828255 -587.36401367 92.3762207 C-595.11791251 94.38549562 -602.82961217 96.09949757 -610.7265625 97.4296875 C-613.39265513 97.80054072 -613.39265513 97.80054072 -615.4375 98.9375 C-617.12246 99.09303477 -618.81082131 99.21271729 -620.5 99.3125 C-625.10122294 99.69043617 -628.97001985 100.62009473 -633.29296875 102.1796875 C-644.584951 106.16993259 -661.60466269 109.01775306 -673.4375 106.9375 C-675.203125 105.6328125 -675.203125 105.6328125 -676.4375 103.9375 C-676.82076084 99.72163079 -676.90873541 96.45425809 -674.4375 92.9375 C-672.00390625 91.9609375 -672.00390625 91.9609375 -669 91.3125 C-667.36611328 90.95478516 -667.36611328 90.95478516 -665.69921875 90.58984375 C-664.08466797 90.26693359 -664.08466797 90.26693359 -662.4375 89.9375 C-661.57769531 89.75316406 -660.71789062 89.56882812 -659.83203125 89.37890625 C-654.92641642 88.39778328 -650.03501976 87.77917803 -645.0612793 87.29125977 C-638.07502553 86.59979259 -631.31740915 85.64440401 -624.5 83.9375 C-623.83202393 83.77137207 -623.16404785 83.60524414 -622.47583008 83.43408203 C-619.33770798 82.60437446 -617.17049249 81.75949499 -614.4375 79.9375 C-612.55517463 79.55189465 -610.65495566 79.25096655 -608.75 79 C-601.62213954 77.98850761 -594.57110767 76.68371558 -587.50341797 75.32861328 C-585.4324321 74.93654056 -583.35939963 74.55802177 -581.28515625 74.18359375 C-580.59848877 74.05847412 -579.91182129 73.93335449 -579.2043457 73.80444336 C-577.31888051 73.46140327 -575.43289627 73.1212195 -573.546875 72.78125 C-570.28686468 72.14916519 -567.0839781 71.35461117 -563.8671875 70.53125 C-556.89440789 68.7629496 -549.86793683 67.33360173 -542.8125 65.9375 C-541.82904099 65.7414064 -541.82904099 65.7414064 -540.82571411 65.54135132 C-532.3206973 63.84639997 -523.80861371 62.26141707 -515.24121094 60.91455078 C-510.95843486 60.23091034 -506.77358202 59.34671403 -502.5625 58.3125 C-498.5183981 57.32675016 -494.71678876 56.73754577 -490.5625 56.5 C-484.60331703 56.11780109 -479.22454084 54.6046037 -473.49609375 52.98046875 C-468.42045897 51.6084398 -463.26602328 50.82877698 -458.07763672 50.0144043 C-452.28485821 49.1000503 -446.56842122 47.96297103 -440.84375 46.68359375 C-439.7196875 46.43738281 -438.595625 46.19117188 -437.4375 45.9375 C-436.72005615 45.77338623 -436.0026123 45.60927246 -435.26342773 45.44018555 C-428.37207725 43.94417867 -421.52760391 43.35067654 -414.5 42.875 C-412.28231159 42.72087002 -410.06484711 42.56347294 -407.84765625 42.40234375 C-406.87965088 42.336521 -405.91164551 42.27069824 -404.91430664 42.20288086 C-402.30731231 42.01263664 -402.30731231 42.01263664 -399.4375 40.9375 C-397.93948623 40.80786419 -396.43881211 40.70814228 -394.9375 40.625 C-389.60722032 40.19661125 -384.57230054 39.12638711 -379.375 37.9375 C-371.19526096 36.08588589 -363.2718794 35.36462437 -354.90234375 35.11328125 C-351.58247337 35.17720363 -351.58247337 35.17720363 -349.4375 33.9375 C-347.64838409 33.78015104 -345.85579988 33.6613433 -344.0625 33.5625 C-338.65027919 33.15609963 -333.72376048 32.09204013 -328.4921875 30.69921875 C-319.33101525 28.41478321 -310.04776032 27.66667393 -300.65234375 27.18359375 C-297.62823129 27.0436965 -297.62823129 27.0436965 -295.51025391 26.45117188 C-293.34296778 25.91407293 -291.28184852 25.66857893 -289.05859375 25.47265625 C-288.22561768 25.39587646 -287.3926416 25.31909668 -286.53442383 25.23999023 C-285.65681396 25.16079346 -284.7792041 25.08159668 -283.875 25 C-278.44959547 24.49062901 -273.09226705 23.98314827 -267.75 22.875 C-263.36114846 21.99042527 -259.0253326 21.70164938 -254.5625 21.5 C-247.29809956 21.16051932 -240.21764348 20.26393764 -233.03222656 19.16650391 C-224.14869171 17.83477689 -215.23195861 16.90968883 -206.29370117 16.02783203 C-200.09859815 15.39972422 -194.04427971 14.53623786 -187.93017578 13.36352539 C-184.33398567 12.7488974 -180.83478853 12.58053092 -177.1875 12.4375 C-172.04559611 12.23426269 -167.07499544 11.76828246 -161.98046875 11.03515625 C-151.82343361 9.63510172 -141.61586523 8.90785298 -131.39526367 8.13256836 C-128.0099189 7.87575246 -124.62505583 7.61322475 -121.24023438 7.34960938 C-112.10989213 6.64350189 -102.98340288 5.95098948 -93.83984375 5.44140625 C-88.15777691 5.10253023 -82.55797885 4.49336983 -76.91650391 3.74282837 C-68.10597812 2.59333668 -59.25269158 1.8854505 -50.40112305 1.13256836 C-47.37582807 0.87507048 -44.35098415 0.61271102 -41.32617188 0.34960938 C-3.45541519 -2.92381285 -3.45541519 -2.92381285 0 0 Z " fill="#0B0B0B" transform="translate(860.4375,544.0625)"/>
<path d="M0 0 C2.375 1.5 2.375 1.5 4 4 C4.68788978 9.99446812 3.59665535 13.50707523 1 19 C-0.94284773 24.75522819 -1.56019303 30.33858057 -2.0625 36.375 C-2.21608146 38.1748224 -2.37342364 39.97432925 -2.53515625 41.7734375 C-2.600979 42.56153809 -2.66680176 43.34963867 -2.73461914 44.16162109 C-3 46 -3 46 -4 47 C-4.28502833 48.61764768 -4.51444645 50.24518859 -4.71875 51.875 C-4.84636719 52.85984375 -4.97398437 53.8446875 -5.10546875 54.859375 C-5.23566406 55.89578125 -5.36585938 56.9321875 -5.5 58 C-5.75653968 60.04215744 -6.0167564 62.08385749 -6.28125 64.125 C-6.39533203 65.03507812 -6.50941406 65.94515625 -6.62695312 66.8828125 C-7 69 -7 69 -8 70 C-8.27327196 71.5591258 -8.49089696 73.12809853 -8.68359375 74.69921875 C-8.80669922 75.66150391 -8.92980469 76.62378906 -9.05664062 77.61523438 C-9.30810323 79.64369943 -9.55813207 81.6723428 -9.80664062 83.70117188 C-10.44949234 88.70742121 -11.2137914 93.25262428 -13 98 C-15.40257208 104.82649633 -15.6274426 111.68709509 -16.0625 118.875 C-16.21599911 121.33098583 -16.37333184 123.78673616 -16.53515625 126.2421875 C-16.600979 127.3235498 -16.66680176 128.40491211 -16.73461914 129.51904297 C-17 132 -17 132 -18 133 C-18.23866733 134.40751596 -18.4183286 135.82512741 -18.57250977 137.24438477 C-18.72255211 138.59567223 -18.72255211 138.59567223 -18.87562561 139.97425842 C-18.97983322 140.95341721 -19.08404083 141.93257599 -19.19140625 142.94140625 C-19.30097153 143.93881332 -19.4105368 144.9362204 -19.52342224 145.96385193 C-19.87388713 149.1629685 -20.21825355 152.36270889 -20.5625 155.5625 C-20.79842802 157.72595513 -21.0347509 159.88936723 -21.27148438 162.05273438 C-21.85224613 167.36799808 -22.42799667 172.68378702 -23 178 C-23.66 178 -24.32 178 -25 178 C-24.97679687 178.81339844 -24.95359375 179.62679687 -24.9296875 180.46484375 C-24.81941319 187.46726238 -25.10764716 194.23841701 -25.9375 201.1875 C-26.02435059 201.91767334 -26.11120117 202.64784668 -26.20068359 203.40014648 C-26.58180325 206.40155183 -27.04065008 209.12195024 -28 212 C-28.12662048 213.86208684 -28.20160439 215.72789341 -28.24609375 217.59375 C-28.29540039 219.264375 -28.29540039 219.264375 -28.34570312 220.96875 C-28.40608664 223.29158835 -28.46346295 225.61450716 -28.51757812 227.9375 C-29.01612862 244.34263341 -29.01612862 244.34263341 -31 249 C-35.09656233 251.16145402 -38.42882267 251.92973098 -43 251 C-50.3628753 244.96214112 -53.86286294 235.42113264 -57.6875 226.98046875 C-60.22663454 221.40980758 -63.10430614 216.04208294 -66.08178711 210.69506836 C-68.35922998 206.52399796 -69.85742093 202.618173 -71 198 C-71.66 198 -72.32 198 -73 198 C-73.25394531 197.35933594 -73.50789063 196.71867188 -73.76953125 196.05859375 C-75.37207128 192.03123661 -76.97605653 188.0177998 -78.75 184.0625 C-80 181 -80 181 -80 178 C-80.66 178 -81.32 178 -82 178 C-83.4606285 175.35261084 -84 174.10551666 -84 171 C-84.66 171 -85.32 171 -86 171 C-86.495 166.545 -86.495 166.545 -87 162 C-87.66 162 -88.32 162 -89 162 C-89.65043719 160.27255984 -90.29514844 158.5429631 -90.9375 156.8125 C-91.29714844 155.84957031 -91.65679687 154.88664063 -92.02734375 153.89453125 C-92.91156562 151.2631722 -93.52568586 148.73105092 -94 146 C-94.66 146 -95.32 146 -96 146 C-96.42152344 145.00097656 -96.84304687 144.00195312 -97.27734375 142.97265625 C-97.83060217 141.66921692 -98.38399451 140.36583443 -98.9375 139.0625 C-99.21529297 138.40314453 -99.49308594 137.74378906 -99.77929688 137.06445312 C-101.00792883 133.79531504 -101.00792883 133.79531504 -103 131 C-103.04063832 129.33382885 -103.042721 127.66611905 -103 126 C-103.66 126 -104.32 126 -105 126 C-105.17015625 125.39414062 -105.3403125 124.78828125 -105.515625 124.1640625 C-107.60967461 116.92399736 -110.27121463 110.05218482 -113.2265625 103.125 C-115.7954819 97.07306717 -118.06859201 91.01293757 -120.09375 84.7578125 C-120.88351048 82.35448965 -121.72609392 79.989123 -122.625 77.625 C-123.07875 76.42875 -123.5325 75.2325 -124 74 C-124.391875 72.989375 -124.78375 71.97875 -125.1875 70.9375 C-126.36917661 66.66528455 -126.67374239 62.82872935 -125.125 58.625 C-124 57 -124 57 -122 56 C-118.16416465 55.48855529 -116.52255176 55.635429 -113.3125 57.875 C-110.2358262 62.0326673 -109.24137515 66.03449941 -108 71 C-107.43785643 72.95843568 -106.87536018 74.91677016 -106.3125 76.875 C-105.36484605 80.208798 -105 82.46657467 -105 86 C-104.34 86 -103.68 86 -103 86 C-100.02383808 91.1807263 -98.29675142 96.31144384 -96.75 102.0625 C-94.90860879 108.8051763 -92.34514134 114.54066919 -88.88305664 120.59350586 C-86.0668357 125.60198655 -84.34009352 130.62286096 -82.88671875 136.1953125 C-81.95668339 139.13701023 -80.60845059 141.38189701 -79 144 C-78.3125 147.3125 -78.3125 147.3125 -78 150 C-77.34 150 -76.68 150 -76 150 C-75.68546875 150.7734375 -75.3709375 151.546875 -75.046875 152.34375 C-72.22159518 159.26196908 -72.22159518 159.26196908 -69 166 C-67.2774582 169.36036843 -65.74162021 172.78072602 -64.25 176.25 C-63.82203125 177.24515625 -63.3940625 178.2403125 -62.953125 179.265625 C-62 182 -62 182 -62 186 C-61.34 186 -60.68 186 -60 186 C-60 187.32 -60 188.64 -60 190 C-59.34 190 -58.68 190 -58 190 C-57.32880451 191.4562545 -56.66318193 192.91507867 -56 194.375 C-55.62875 195.18710937 -55.2575 195.99921875 -54.875 196.8359375 C-54 199 -54 199 -54 201 C-53.34 201 -52.68 201 -52 201 C-51.49440092 202.43554025 -50.9957251 203.8735202 -50.5 205.3125 C-50.2215625 206.11300781 -49.943125 206.91351562 -49.65625 207.73828125 C-49 210 -49 210 -49 213 C-48.34 213 -47.68 213 -47 213 C-46.71125 213.639375 -46.4225 214.27875 -46.125 214.9375 C-45.17176549 217.15206079 -45.17176549 217.15206079 -43 218 C-43.01160156 216.80761719 -43.02320313 215.61523438 -43.03515625 214.38671875 C-43.04453592 212.82031406 -43.05363593 211.25390769 -43.0625 209.6875 C-43.07506836 208.50897461 -43.07506836 208.50897461 -43.08789062 207.30664062 C-43.09111328 206.54931641 -43.09433594 205.79199219 -43.09765625 205.01171875 C-43.10289307 204.31522217 -43.10812988 203.61872559 -43.11352539 202.90112305 C-43 201 -43 201 -42 198 C-41.87772484 196.66322807 -41.79975208 195.32203819 -41.75390625 193.98046875 C-41.70459961 192.81741211 -41.70459961 192.81741211 -41.65429688 191.63085938 C-41.59354398 190.0137982 -41.53620098 188.39660499 -41.48242188 186.77929688 C-41.27839507 182.12517599 -40.560784 178.42222133 -39 174 C-38.57967283 171.34342239 -38.22177828 168.73232382 -37.9375 166.0625 C-37.85443604 165.32757324 -37.77137207 164.59264648 -37.68579102 163.83544922 C-37.00139904 157.55950082 -36.57679185 151.2800732 -36.24609375 144.9765625 C-36 142 -36 142 -35 139 C-34.72833561 135.45111434 -34.55459248 131.90249891 -34.37890625 128.34765625 C-34 125 -34 125 -33.01367188 123.06835938 C-31.89947588 120.7948843 -31.62485174 119.07097939 -31.40234375 116.55859375 C-31.32306641 115.72779297 -31.24378906 114.89699219 -31.16210938 114.04101562 C-31.08798828 113.18185547 -31.01386719 112.32269531 -30.9375 111.4375 C-30.78298216 109.72758768 -30.62555109 108.01793546 -30.46484375 106.30859375 C-30.399021 105.55376709 -30.33319824 104.79894043 -30.26538086 104.02124023 C-30 102 -30 102 -29 99 C-28.79040462 97.59414375 -28.61520745 96.18295007 -28.46484375 94.76953125 C-28.37783203 93.96708984 -28.29082031 93.16464844 -28.20117188 92.33789062 C-28.11416016 91.50451172 -28.02714844 90.67113281 -27.9375 89.8125 C-27.80118164 88.5450293 -27.80118164 88.5450293 -27.66210938 87.25195312 C-27.4384388 85.16828515 -27.21882849 83.08418205 -27 81 C-26.34 81 -25.68 81 -25 81 C-24.91363281 79.88109375 -24.82726562 78.7621875 -24.73828125 77.609375 C-23.82893538 66.90724827 -22.32861072 56.3864815 -20.4375 45.8125 C-20.21553955 44.56500977 -19.9935791 43.31751953 -19.76489258 42.03222656 C-18.13405608 33.13405608 -18.13405608 33.13405608 -17 32 C-16.6424955 30.59401592 -16.34038267 29.17386162 -16.0625 27.75 C-15.8871875 26.8528125 -15.711875 25.955625 -15.53125 25.03125 C-14.96130886 21.77923292 -14.51258411 18.52061121 -14.0625 15.25 C-13.37119663 10.56572837 -12.51643748 7.00342326 -10 3 C-9.34 3 -8.68 3 -8 3 C-8 2.34 -8 1.68 -8 1 C-5.15916359 -0.42041821 -3.14522722 -0.31452272 0 0 Z " fill="#0A090A" transform="translate(272,338)"/>
<path d="M0 0 C4.23638548 4.55411439 3.53239386 10.59220859 3.5 16.4375 C3.49935547 17.50613281 3.49871094 18.57476562 3.49804688 19.67578125 C3.33600471 28.31106042 1.82009013 35.25067431 -2 43 C-2.66 43 -3.32 43 -4 43 C-4.15275391 43.79664063 -4.15275391 43.79664063 -4.30859375 44.609375 C-5.20308101 47.7021784 -6.59861127 50.38451568 -8.0625 53.25 C-8.61035156 54.32765625 -9.15820312 55.4053125 -9.72265625 56.515625 C-10.14417969 57.33546875 -10.56570313 58.1553125 -11 59 C-11.66 59 -12.32 59 -13 59 C-13.0928125 60.0209375 -13.0928125 60.0209375 -13.1875 61.0625 C-14.26401385 64.95451162 -16.25665032 68.03444754 -19 71 C-19.66 71 -20.32 71 -21 71 C-21.33 72.32 -21.66 73.64 -22 75 C-22.66 75 -23.32 75 -24 75 C-26.89262905 83.67788716 -23.73685489 91.04207803 -20 99 C-18.04973609 102.06690578 -17.52089975 102.82636675 -14 104 C-14 104.66 -14 105.32 -14 106 C-5.585 105.505 -5.585 105.505 3 105 C3 104.34 3 103.68 3 103 C7.32734391 100.77076223 10.28400182 101.07529447 15 102 C15.33 102.99 15.66 103.98 16 105 C16.66 105 17.32 105 18 105 C18.30693186 111.75250088 18.30693186 111.75250088 16 115 C13.7105529 116.23902904 11.58978758 117.23890439 9.1875 118.1875 C8.57068359 118.44724609 7.95386719 118.70699219 7.31835938 118.97460938 C-0.63097956 122.24389117 -10.00805653 123.78400906 -18.4140625 121.28125 C-22.78909804 119.18663839 -26.4939534 116.33074427 -30 113 C-30 112.34 -30 111.68 -30 111 C-30.66 111 -31.32 111 -32 111 C-35.43796251 104.71456473 -37.74646681 99.06536889 -39 92 C-39.60328125 92.02320313 -40.2065625 92.04640625 -40.828125 92.0703125 C-41.62734375 92.08835937 -42.4265625 92.10640625 -43.25 92.125 C-44.03890625 92.14820313 -44.8278125 92.17140625 -45.640625 92.1953125 C-48.20731941 91.9828378 -49.7916067 91.28654105 -52 90 C-52.91353383 82.23496241 -52.91353383 82.23496241 -50.734375 79.2890625 C-46.81791908 76 -46.81791908 76 -44 76 C-44 62.47 -44 48.94 -44 35 C-43.34 35 -42.68 35 -42 35 C-42.061875 33.865625 -42.12375 32.73125 -42.1875 31.5625 C-42.21380222 26.66152009 -40.76012394 22.526033 -39 18 C-38.34 18 -37.68 18 -37 18 C-37 17.01 -37 16.02 -37 15 C-36.34 15 -35.68 15 -35 15 C-35 14.34 -35 13.68 -35 13 C-34.34 13 -33.68 13 -33 13 C-32.896875 12.236875 -32.79375 11.47375 -32.6875 10.6875 C-31.95288806 7.81583516 -31.3283935 6.76957906 -29 5 C-28.34 5 -27.68 5 -27 5 C-27 4.34 -27 3.68 -27 3 C-19.19360736 -0.94725045 -8.45944673 -3.71702963 0 0 Z " fill="#090909" transform="translate(620,404)"/>
<path d="M0 0 C1.16402344 0.13148438 1.16402344 0.13148438 2.3515625 0.265625 C4.375 0.75 4.375 0.75 6.375 2.75 C7.15061235 7.63285326 7.25377675 12.62636121 7.5 17.5625 C7.56353668 18.75397141 7.56353668 18.75397141 7.62835693 19.96951294 C9.31332888 52.8296556 8.54136734 85.85812072 8.375 118.75 C9.365 118.42 10.355 118.09 11.375 117.75 C12.76939664 117.68334624 14.16669875 117.66461801 15.5625 117.6875 C16.820625 117.708125 18.07875 117.72875 19.375 117.75 C19.375 117.09 19.375 116.43 19.375 115.75 C20.365 115.646875 21.355 115.54375 22.375 115.4375 C25.88355844 114.93828627 28.91115132 113.87908323 32.1953125 112.58203125 C34.62833076 111.65329847 37.07718965 110.84054226 39.5625 110.0625 C40.36042969 109.81113281 41.15835938 109.55976563 41.98046875 109.30078125 C44.52055928 108.71651899 46.77752896 108.65311387 49.375 108.75 C49.375 108.09 49.375 107.43 49.375 106.75 C56.53289474 106.39210526 56.53289474 106.39210526 59.875 107.8125 C62.20350957 110.8201582 61.82072235 113.05687194 61.375 116.75 C60.04033754 119.51051304 59.08335229 121.3132067 56.44921875 122.9375 C46.31909595 126.38605244 35.83000843 128.53152141 25.375 130.75 C24.05653076 131.04342285 24.05653076 131.04342285 22.71142578 131.34277344 C17.81547314 132.39620397 13.38267011 132.96772479 8.375 132.75 C8.44516566 136.62422974 8.53369727 140.49761493 8.63745117 144.37109375 C8.68606394 146.31750146 8.72116757 148.26423191 8.75585938 150.2109375 C9.02574823 159.82879471 10.42494119 168.62797604 12.96606445 177.90869141 C13.61765771 180.84261159 13.43251654 183.75913967 13.375 186.75 C12.715 186.75 12.055 186.75 11.375 186.75 C11.375 187.41 11.375 188.07 11.375 188.75 C7.84927193 191.10048538 6.52486355 191.41397817 2.375 190.75 C-2.29162616 187.03791101 -3.00230144 183.77688005 -3.875 177.9375 C-4.00390625 176.79667969 -4.1328125 175.65585937 -4.265625 174.48046875 C-4.33119305 171.84087714 -4.33119305 171.84087714 -5.625 170.75 C-5.7133967 168.3743148 -5.74030305 166.02791326 -5.72265625 163.65234375 C-5.7212413 162.94348526 -5.71982635 162.23462677 -5.71836853 161.50428772 C-5.71275443 159.23198288 -5.70019963 156.95977525 -5.6875 154.6875 C-5.68248681 153.15039204 -5.67792359 151.61328255 -5.67382812 150.07617188 C-5.66278042 146.30074358 -5.64550641 142.52538829 -5.625 138.75 C-6.55151367 138.89219971 -7.47802734 139.03439941 -8.43261719 139.1809082 C-20.78196887 141.02170018 -20.78196887 141.02170018 -26.875 140.9375 C-27.93203125 140.93105469 -28.9890625 140.92460937 -30.078125 140.91796875 C-32.625 140.75 -32.625 140.75 -34.625 139.75 C-35.82254817 136.15735548 -35.95594958 133.52282526 -35.625 129.75 C-32.11722896 125.30682335 -29.2141428 124.60540276 -23.69921875 123.95117188 C-22.93222656 123.86416016 -22.16523437 123.77714844 -21.375 123.6875 C-20.24771484 123.55118164 -20.24771484 123.55118164 -19.09765625 123.41210938 C-14.85612251 122.91985459 -10.94255323 122.75 -6.625 122.75 C-6.625 90.74 -6.625 58.73 -6.625 25.75 C-7.285 25.75 -7.945 25.75 -8.625 25.75 C-8.625 17.83 -8.625 9.91 -8.625 1.75 C-4.73360457 -0.19569771 -3.98833309 -0.50687845 0 0 Z " fill="#070707" transform="translate(794.625,306.25)"/>
<path d="M0 0 C6.45520194 2.8025671 11.55800404 7.75395767 14.8125 13.9375 C15.51375 14.741875 16.215 15.54625 16.9375 16.375 C19.07156664 19.29155775 19.48142049 21.37839527 19.8125 24.9375 C20.4725 24.9375 21.1325 24.9375 21.8125 24.9375 C22.25 26.25 22.6875 27.5625 23.125 28.875 C23.53492188 30.10283203 23.53492188 30.10283203 23.953125 31.35546875 C24.50835891 33.02369428 25.06065168 34.6929029 25.609375 36.36328125 C25.86203125 37.13027344 26.1146875 37.89726562 26.375 38.6875 C26.61992187 39.43386719 26.86484375 40.18023437 27.1171875 40.94921875 C27.82027721 43.0633083 27.82027721 43.0633083 29 45.5 C30.1813044 49.04391319 29.93878193 52.21218304 29.8125 55.9375 C30.4725 55.9375 31.1325 55.9375 31.8125 55.9375 C32.634293 59.24776371 33.44318483 62.56105671 34.25 65.875 C34.48009766 66.80119141 34.71019531 67.72738281 34.94726562 68.68164062 C38.57278963 83.6566311 38.57278963 83.6566311 36.8125 88.9375 C36.1525 88.9375 35.4925 88.9375 34.8125 88.9375 C34.8125 89.5975 34.8125 90.2575 34.8125 90.9375 C27.56840551 91.42043963 27.56840551 91.42043963 24.5625 89.5 C19.84187404 82.58765484 18.28975446 75.6815616 16.79296875 67.51953125 C15.64240622 61.77451901 13.96591833 56.17931613 12.3125 50.5625 C11.86716919 49.04740845 11.86716919 49.04740845 11.4128418 47.50170898 C8.14959424 35.77481046 8.14959424 35.77481046 2.8125 24.9375 C2.8125 24.2775 2.8125 23.6175 2.8125 22.9375 C2.1525 22.9375 1.4925 22.9375 0.8125 22.9375 C-0.6953125 21.40625 -0.6953125 21.40625 -2.3125 19.4375 C-2.85132813 18.7878125 -3.39015625 18.138125 -3.9453125 17.46875 C-4.35523438 16.9634375 -4.76515625 16.458125 -5.1875 15.9375 C-7.61882493 15.97611748 -7.61882493 15.97611748 -10.1875 16.9375 C-11.79632364 19.5343839 -11.79632364 19.5343839 -12.8125 22.8125 C-13.22113281 23.97910156 -13.62976563 25.14570313 -14.05078125 26.34765625 C-15.57966579 31.17598921 -16.9753843 36.02005499 -18.1875 40.9375 C-18.8475 40.9375 -19.5075 40.9375 -20.1875 40.9375 C-21.24859111 45.63661777 -22.27342848 50.33254259 -23.1875 55.0625 C-24.21862362 60.2261113 -25.27773178 65.15587056 -27.6875 69.875 C-30.97443428 76.58582415 -31.61484089 83.58335137 -32.1875 90.9375 C-32.8475 90.9375 -33.5075 90.9375 -34.1875 90.9375 C-34.5175 93.2475 -34.8475 95.5575 -35.1875 97.9375 C-35.8475 97.9375 -36.5075 97.9375 -37.1875 97.9375 C-37.8475 99.2575 -38.5075 100.5775 -39.1875 101.9375 C-40.46625 101.999375 -41.745 102.06125 -43.0625 102.125 C-44.14144531 102.17720703 -44.14144531 102.17720703 -45.2421875 102.23046875 C-45.88414062 102.13378906 -46.52609375 102.03710938 -47.1875 101.9375 C-49.61946668 98.28954998 -49.82122477 95.05551053 -50.25 90.8125 C-50.3467999 85.98453734 -50.3467999 85.98453734 -52.1875 81.9375 C-53.74694953 73.61637475 -54.47283951 65.24454511 -54.94140625 56.80078125 C-55.08116773 53.86678327 -55.08116773 53.86678327 -56.1875 50.9375 C-56.81439994 46.86835661 -57.26507199 42.77574472 -57.75 38.6875 C-57.88857422 37.56730469 -58.02714844 36.44710937 -58.16992188 35.29296875 C-59.9566039 20.38341533 -59.9566039 20.38341533 -57.625 16 C-55.1875 13.9375 -55.1875 13.9375 -51.5625 13.5625 C-48.1875 13.9375 -48.1875 13.9375 -46.1875 14.9375 C-46.1875 15.5975 -46.1875 16.2575 -46.1875 16.9375 C-45.5275 16.9375 -44.8675 16.9375 -44.1875 16.9375 C-42.88629273 19.53991455 -42.8891313 21.70282385 -42.6875 24.609375 C-42.56375 26.31867188 -42.56375 26.31867188 -42.4375 28.0625 C-42.31375 29.856875 -42.31375 29.856875 -42.1875 31.6875 C-42.02336817 34.03663681 -41.85678082 36.38560361 -41.6875 38.734375 C-41.6153125 39.77948242 -41.543125 40.82458984 -41.46875 41.90136719 C-41.18639364 44.9494433 -40.72798379 47.92542886 -40.1875 50.9375 C-38.3680444 47.6139611 -37.31233432 44.25570887 -36.25 40.625 C-34.81945542 35.8777113 -33.22235492 31.4495696 -31.1875 26.9375 C-30.67845734 25.60759273 -30.17884071 24.27404857 -29.6875 22.9375 C-28.31010612 19.21423217 -26.7755035 15.57667469 -25.1875 11.9375 C-24.56875 10.1740625 -24.56875 10.1740625 -23.9375 8.375 C-18.77517659 -1.76527812 -10.5139103 -3.27007446 0 0 Z " fill="#0A0909" transform="translate(421.1875,446.0625)"/>
<path d="M0 0 C5.35148104 3.55911897 12.43665869 8.37247608 14.5 14.5625 C15.10070312 15.06652344 15.70140625 15.57054687 16.3203125 16.08984375 C19.68433837 19.90602364 20.82857004 24.33279605 22.375 29.125 C22.71797119 30.165354 23.06094238 31.20570801 23.41430664 32.27758789 C27.08361345 43.77838756 29.59041111 55.52538727 31.96264648 67.35131836 C32.28748484 69.52336145 32.28748484 69.52336145 33.5 70.5625 C33.54080783 72.56208364 33.54254356 74.56295254 33.5 76.5625 C34.16 76.5625 34.82 76.5625 35.5 76.5625 C35.58131463 77.99905854 35.63933559 79.4369483 35.6875 80.875 C35.73970703 82.07576172 35.73970703 82.07576172 35.79296875 83.30078125 C35.5 85.5625 35.5 85.5625 34.234375 87.32421875 C31.81739506 89.04985533 29.43706228 89.02205781 26.53515625 89.15625 C23.15960124 88.17144316 22.33839518 86.5644826 20.5 83.5625 C19.07162878 79.6453517 17.99855464 75.65504985 16.9375 71.625 C16.63448975 70.50722168 16.33147949 69.38944336 16.01928711 68.23779297 C10.5 47.63942511 10.5 47.63942511 10.5 41.5625 C9.84 41.5625 9.18 41.5625 8.5 41.5625 C8.24605469 40.65886719 7.99210938 39.75523437 7.73046875 38.82421875 C7.21419922 37.05498047 7.21419922 37.05498047 6.6875 35.25 C6.35105469 34.07824219 6.01460937 32.90648437 5.66796875 31.69921875 C4.54036087 28.67089391 3.7088778 27.7207445 1.5 25.5625 C1.5 24.2425 1.5 22.9225 1.5 21.5625 C0.84 21.5625 0.18 21.5625 -0.5 21.5625 C-0.5 20.9025 -0.5 20.2425 -0.5 19.5625 C-2.975 18.5725 -2.975 18.5725 -5.5 17.5625 C-5.5 16.9025 -5.5 16.2425 -5.5 15.5625 C-7.90877257 15.67591534 -7.90877257 15.67591534 -10.5 16.5625 C-12.18326167 18.72591413 -12.18326167 18.72591413 -13.5 21.5625 C-14.20512866 22.75190571 -14.91360057 23.93933428 -15.625 25.125 C-17.06408276 27.7633184 -18.03393301 29.64958128 -18.5 32.5625 C-19.16 32.5625 -19.82 32.5625 -20.5 32.5625 C-20.685625 34.109375 -20.685625 34.109375 -20.875 35.6875 C-21.43889814 39.18366846 -22.28682059 42.24647627 -23.5 45.5625 C-24.16 45.5625 -24.82 45.5625 -25.5 45.5625 C-25.63720459 46.4380957 -25.77440918 47.31369141 -25.91577148 48.21582031 C-26.4418893 51.22962016 -27.09192524 54.14635175 -27.84765625 57.109375 C-28.11336426 58.15287109 -28.37907227 59.19636719 -28.65283203 60.27148438 C-29.07218018 61.90053711 -29.07218018 61.90053711 -29.5 63.5625 C-29.77569824 64.64337891 -30.05139648 65.72425781 -30.33544922 66.83789062 C-31.19015867 70.16618924 -32.06212834 73.4895814 -32.9375 76.8125 C-33.22431641 77.93140625 -33.51113281 79.0503125 -33.80664062 80.203125 C-35.45370653 86.42455881 -37.25241143 91.9875841 -40.5 97.5625 C-42.82686453 98.72593227 -44.34721413 98.76145988 -46.9375 98.8125 C-48.11119141 98.85117187 -48.11119141 98.85117187 -49.30859375 98.890625 C-52.09280185 98.47373823 -52.82859334 97.80403663 -54.5 95.5625 C-56.58744883 91.34143059 -56.88740154 87.3201172 -57.0625 82.69140625 C-57.09931885 81.9326268 -57.1361377 81.17384735 -57.17407227 80.39207458 C-57.2909811 77.97001695 -57.39660957 75.54766966 -57.5 73.125 C-57.93415801 63.15255289 -58.51127351 53.37587201 -60.05419922 43.50415039 C-60.58635137 39.99270389 -60.86579774 36.54482588 -61.0625 33 C-61.28473717 29.07683366 -61.70823041 25.40641364 -62.5 21.5625 C-62.84777931 17.21930257 -63.00185415 13.31528123 -60.5 9.5625 C-53.32912154 9.07633875 -53.32912154 9.07633875 -49.80859375 11.140625 C-46.80165164 14.29511588 -46.65641717 16.25094392 -46.25 20.5625 C-46.18119629 21.24441406 -46.11239258 21.92632812 -46.04150391 22.62890625 C-45.19882043 31.58016635 -44.8496898 40.58099362 -44.5 49.5625 C-43.84 49.5625 -43.18 49.5625 -42.5 49.5625 C-42.31824219 48.91023438 -42.13648438 48.25796875 -41.94921875 47.5859375 C-41.69785156 46.71195312 -41.44648437 45.83796875 -41.1875 44.9375 C-40.94386719 44.07898438 -40.70023438 43.22046875 -40.44921875 42.3359375 C-39.39135838 39.24506976 -37.96068833 36.48387665 -36.5 33.5625 C-35.45773659 30.96011254 -34.51295438 28.32456642 -33.5625 25.6875 C-30.53726565 17.49784495 -27.61257868 9.99679334 -21.5 3.5625 C-20.84 3.5625 -20.18 3.5625 -19.5 3.5625 C-19.5 2.9025 -19.5 2.2425 -19.5 1.5625 C-13.16887412 -2.43610582 -6.86220139 -2.81840414 0 0 Z " fill="#090909" transform="translate(716.5,413.4375)"/>
<path d="M0 0 C0.99 0.495 0.99 0.495 2 1 C2 1.66 2 2.32 2 3 C2.66 3 3.32 3 4 3 C4 5.97 4 8.94 4 12 C2.081875 12.61875 2.081875 12.61875 0.125 13.25 C-9.52120184 17.52708949 -16.58509986 29.27323433 -22 38 C-22.33 38.99 -22.66 39.98 -23 41 C-23.66 41 -24.32 41 -25 41 C-25 42.32 -25 43.64 -25 45 C-25.66 45 -26.32 45 -27 45 C-27.33 46.32 -27.66 47.64 -28 49 C-28.66 49 -29.32 49 -30 49 C-30.13277344 49.57234375 -30.26554688 50.1446875 -30.40234375 50.734375 C-30.99380317 52.97650875 -31.73288854 55.08579619 -32.5625 57.25 C-32.83191406 57.95640625 -33.10132813 58.6628125 -33.37890625 59.390625 C-33.58386719 59.92171875 -33.78882813 60.4528125 -34 61 C-34.66 61 -35.32 61 -36 61 C-36.103125 61.886875 -36.20625 62.77375 -36.3125 63.6875 C-37 67 -37 67 -38.4140625 69.30859375 C-40.16545452 72.28078365 -41.09252005 75.06842868 -42.0625 78.375 C-42.38347656 79.45523438 -42.70445312 80.53546875 -43.03515625 81.6484375 C-43.51275391 83.30746094 -43.51275391 83.30746094 -44 85 C-44.36609375 86.134375 -44.7321875 87.26875 -45.109375 88.4375 C-46.07501834 92.30007335 -46.23203391 95.64933627 -46.1875 99.625 C-46.18105469 100.89601563 -46.17460937 102.16703125 -46.16796875 103.4765625 C-46.02619702 106.45047187 -45.69124391 109.11336541 -45 112 C-44.34 112 -43.68 112 -43 112 C-43 112.66 -43 113.32 -43 114 C-40.03 114 -37.06 114 -34 114 C-34 113.34 -34 112.68 -34 112 C-33.03578125 111.67386719 -32.0715625 111.34773437 -31.078125 111.01171875 C-29.80195323 110.5706888 -28.52591871 110.12926154 -27.25 109.6875 C-26.61578125 109.47416016 -25.9815625 109.26082031 -25.328125 109.04101562 C-21.72899524 107.7850693 -18.96983597 106.36615436 -16 104 C-15.34 104 -14.68 104 -14 104 C-14 103.34 -14 102.68 -14 102 C-12.12986004 100.77970427 -10.20149253 99.64795936 -8.25 98.5625 C-3.88713942 96.14047882 -3.88713942 96.14047882 0.1953125 93.29296875 C2.80851447 91.42073963 4.87130502 91.72793957 8 92 C8.66 92.33 9.32 92.66 10 93 C10 93.99 10 94.98 10 96 C10.66 96 11.32 96 12 96 C12.34886026 101.32011893 12.34886026 101.32011893 12 104 C10.125 106 10.125 106 8 107 C7.34 107 6.68 107 6 107 C5.79246094 107.59425781 5.58492187 108.18851563 5.37109375 108.80078125 C3.46952843 111.85087035 1.28823952 112.66651494 -1.9375 114.1875 C-2.99839844 114.69667969 -4.05929687 115.20585938 -5.15234375 115.73046875 C-8 117 -8 117 -11 118 C-11.495 119.485 -11.495 119.485 -12 121 C-13.70703125 121.9140625 -13.70703125 121.9140625 -15.8125 122.625 C-16.49957031 122.86476563 -17.18664062 123.10453125 -17.89453125 123.3515625 C-19.91683429 123.97438681 -21.94190909 124.50975812 -24 125 C-24 125.66 -24 126.32 -24 127 C-28.11931155 129.7462077 -31.40955854 129.36765487 -36.25 129.375 C-37.08402344 129.39949219 -37.91804688 129.42398438 -38.77734375 129.44921875 C-45.9214357 129.48286439 -50.00339806 127.61242221 -55.4375 122.875 C-57 121 -57 121 -57 119 C-57.66 119 -58.32 119 -59 119 C-61.66359313 114.36766411 -62.69722136 110.27191038 -63 105 C-63.09667969 103.6696875 -63.09667969 103.6696875 -63.1953125 102.3125 C-63.48273049 95.10788903 -62.16931975 89.07637342 -59.97265625 82.2265625 C-59.04559745 79.15125901 -58.45571885 76.17564083 -58 73 C-57.34 73 -56.68 73 -56 73 C-55.9071875 72.00484375 -55.814375 71.0096875 -55.71875 69.984375 C-55.10101192 65.66455871 -53.4343314 62.12643119 -51.5 58.25 C-49.02218983 53.2224868 -49.02218983 53.2224868 -47 48 C-46.34 48 -45.68 48 -45 48 C-44.67 46.35 -44.34 44.7 -44 43 C-43.34 43 -42.68 43 -42 43 C-41.7525 41.948125 -41.505 40.89625 -41.25 39.8125 C-40.38120177 36.12010754 -38.38560435 33.90402298 -36 31 C-34.91531116 29.30566853 -33.85322153 27.59668747 -32.8125 25.875 C-28.99856261 19.82474538 -24.68771885 14.39246037 -20 9 C-19.278125 8.11183594 -18.55625 7.22367187 -17.8125 6.30859375 C-12.37019336 0.09853314 -8.20786302 -1.48723672 0 0 Z " fill="#0B0B0B" transform="translate(543,410)"/>
<path d="M0 0 C3.69589531 0.94766546 5.06757053 2.65494323 7.4375 5.625 C8.27330867 8.66417135 8.45123266 11.67365512 8.625 14.8125 C8.75953515 16.52762073 8.89751913 18.24247466 9.0390625 19.95703125 C9.10254883 20.77123535 9.16603516 21.58543945 9.23144531 22.42431641 C9.47266599 25.00057607 9.92477429 27.47817712 10.5 30 C11.80702226 35.80441381 12.08452319 41.69870519 12.4375 47.625 C13.0975 47.625 13.7575 47.625 14.4375 47.625 C14.540625 48.78 14.64375 49.935 14.75 51.125 C15.21170337 54.9256886 16.30385831 58.07165508 17.7421875 61.59765625 C18.86792425 64.88000105 19.07523991 68.18352918 19.4375 71.625 C19.9325 72.12 19.9325 72.12 20.4375 72.625 C20.50929964 74.14428038 20.52142007 75.66667482 20.5 77.1875 C20.49097656 78.01378906 20.48195313 78.84007812 20.47265625 79.69140625 C20.46105469 80.32949219 20.44945312 80.96757813 20.4375 81.625 C19.7775 81.625 19.1175 81.625 18.4375 81.625 C18.4375 82.285 18.4375 82.945 18.4375 83.625 C17.02446762 83.8756019 15.60670526 84.09961921 14.1875 84.3125 C13.39859375 84.44011719 12.6096875 84.56773437 11.796875 84.69921875 C9.4375 84.625 9.4375 84.625 7.22265625 83.53515625 C4.76050533 80.90060089 4.63979483 78.94319621 4.125 75.375 C2.8981131 67.65429684 1.19281651 60.07388412 -0.58865356 52.46551514 C-3.31986613 40.77619977 -5.59524497 29.15309743 -7.0546875 17.2265625 C-7.16676146 13.82025285 -7.16676146 13.82025285 -8.5625 12.625 C-9 9.375 -9 9.375 -8.5625 5.625 C-5.86037215 2.67151142 -3.9169298 0.95534873 0 0 Z " fill="#0A0A0A" transform="translate(311.5625,472.375)"/>
<path d="M0 0 C1.04324923 8.21075783 -1.37425472 14.3174775 -4.58984375 21.6796875 C-5.64714749 24.16918383 -6.47717804 26.36603619 -7 29 C-7.66 29 -8.32 29 -9 29 C-9.495 31.475 -9.495 31.475 -10 34 C-10.66 34 -11.32 34 -12 34 C-12.12375 34.7425 -12.2475 35.485 -12.375 36.25 C-12.95486701 38.80141485 -13.73708739 40.7267573 -15 43 C-15.66 43 -16.32 43 -17 43 C-17.05444001 39.99975053 -17.0938836 37.00050961 -17.125 34 C-17.14175781 33.16082031 -17.15851562 32.32164062 -17.17578125 31.45703125 C-17.21849117 25.94745123 -16.55502007 21.28951708 -15 16 C-14.34 16 -13.68 16 -13 16 C-12.84144531 15.41992188 -12.68289063 14.83984375 -12.51953125 14.2421875 C-10.87150599 8.72448967 -9.02811524 5.13140024 -5 1 C-3 0 -3 0 0 0 Z " fill="#E5E5E5" transform="translate(608,418)"/>
<path d="M0 0 C1.90625 0.48046875 1.90625 0.48046875 4.40625 2.54296875 C6.25709433 6.1675389 6.34533161 8.45555403 5.90625 12.48046875 C5.28094962 13.83369514 4.6216841 15.17265521 3.90625 16.48046875 C2.46885487 16.50758941 1.03131137 16.52691942 -0.40625 16.54296875 C-1.60701172 16.56037109 -1.60701172 16.56037109 -2.83203125 16.578125 C-5.09375 16.48046875 -5.09375 16.48046875 -8.09375 15.48046875 C-8.09375 14.82046875 -8.09375 14.16046875 -8.09375 13.48046875 C-8.75375 13.48046875 -9.41375 13.48046875 -10.09375 13.48046875 C-10.57136194 6.43569263 -10.57136194 6.43569263 -8.59375 2.48046875 C-5.56406592 0.05672148 -3.80612623 -0.26273633 0 0 Z " fill="#1B1B1B" transform="translate(302.09375,411.51953125)"/>
<path d="M0 0 C0 0.33 0 0.66 0 1 C-5.42215235 2.25126593 -10.86616305 2.40850513 -16.40625 2.71875 C-19.77259775 2.89943805 -19.77259775 2.89943805 -22.11303711 3.46337891 C-26.31197806 4.24386704 -30.53065268 4.52802709 -34.78515625 4.8671875 C-36.76717654 5.0307787 -38.7491913 5.19443691 -40.73120117 5.3581543 C-41.76554291 5.44253754 -42.79988464 5.52692078 -43.86557007 5.61386108 C-58.49219022 6.808626 -73.10543446 8.02827383 -87.6875 9.6875 C-98.45046001 10.91032642 -109.17500987 11.63833558 -120 12 C-116.30454746 9.68529211 -112.53671234 9.50880211 -108.296875 9.21875 C-107.16369843 9.13022766 -107.16369843 9.13022766 -106.00762939 9.03991699 C-103.58894488 8.85206162 -101.1696232 8.67531402 -98.75 8.5 C-84.87315714 7.46734441 -71.11898595 6.1812379 -57.375 3.9375 C-50.44147006 2.92110754 -43.54102277 2.65253831 -36.54785156 2.39648438 C-29.22495376 2.10990341 -21.97712352 1.49169388 -14.69677734 0.66015625 C-9.76108926 0.11024207 -4.96741194 -0.08486467 0 0 Z " fill="#9B9A9A" transform="translate(759,566)"/>
<path d="M0 0 C0.33 0 0.66 0 1 0 C1.02700675 2.91672884 1.04684237 5.83320677 1.0625 8.75 C1.07087891 9.575 1.07925781 10.4 1.08789062 11.25 C1.09111328 12.04921875 1.09433594 12.8484375 1.09765625 13.671875 C1.10289307 14.4050293 1.10812988 15.13818359 1.11352539 15.89355469 C0.99701009 18.05547734 0.53285144 19.9067459 0 22 C-0.13024677 23.48944566 -0.22188354 24.98261196 -0.28125 26.4765625 C-0.31863281 27.311875 -0.35601562 28.1471875 -0.39453125 29.0078125 C-0.46515807 30.76040403 -0.53546779 32.51300836 -0.60546875 34.265625 C-0.64285156 35.09835937 -0.68023437 35.93109375 -0.71875 36.7890625 C-0.74904297 37.54912598 -0.77933594 38.30918945 -0.81054688 39.09228516 C-1 41 -1 41 -2 43 C-2.11700983 44.63143588 -2.17874229 46.26703406 -2.2109375 47.90234375 C-2.23929688 48.87494141 -2.26765625 49.84753906 -2.296875 50.84960938 C-2.34885493 52.9041163 -2.39315702 54.95883218 -2.4296875 57.01367188 C-2.460625 57.98755859 -2.4915625 58.96144531 -2.5234375 59.96484375 C-2.54325684 60.8580835 -2.56307617 61.75132324 -2.58349609 62.67163086 C-3.07053357 65.39430168 -3.8801175 66.29092834 -6 68 C-5.8453125 66.95457031 -5.690625 65.90914062 -5.53125 64.83203125 C-4.63027331 57.63214886 -4.60844767 50.36066266 -4.39453125 43.11523438 C-4.35714844 41.98794922 -4.31976563 40.86066406 -4.28125 39.69921875 C-4.25095703 38.67658936 -4.22066406 37.65395996 -4.18945312 36.6003418 C-4 34 -4 34 -3 31 C-2.71267711 28.64604457 -2.46774285 26.286826 -2.24609375 23.92578125 C-2.18092056 23.2419487 -2.11574738 22.55811615 -2.04859924 21.8535614 C-1.84159238 19.67350526 -1.63948511 17.49302658 -1.4375 15.3125 C-1.29784893 13.83265179 -1.15787874 12.35283365 -1.01757812 10.87304688 C-0.6746843 7.24903937 -0.33618262 3.62463694 0 0 Z " fill="#8D8D8D" transform="translate(247,516)"/>
<path d="M0 0 C-3.59913041 1.92083233 -6.6166826 2.50710103 -10.6875 3 C-11.65260498 3.12072876 -11.65260498 3.12072876 -12.63720703 3.24389648 C-16.33191396 3.70097819 -20.03108794 4.1178873 -23.73046875 4.53515625 C-24.50495361 4.62345703 -25.27943848 4.71175781 -26.07739258 4.80273438 C-27.59362658 4.97415856 -29.11039534 5.14092517 -30.62768555 5.30273438 C-34.11117726 5.41650716 -34.11117726 5.41650716 -37 7 C-38.97509873 7.2094361 -40.95571682 7.36803822 -42.9375 7.5 C-47.12167415 7.67735084 -47.12167415 7.67735084 -51 9 C-53.04055005 9.07065617 -55.08334257 9.08421976 -57.125 9.0625 C-58.22070312 9.05347656 -59.31640625 9.04445313 -60.4453125 9.03515625 C-61.70988281 9.01775391 -61.70988281 9.01775391 -63 9 C-59.35511415 6.77205187 -55.59765156 6.39884757 -51.4375 5.9375 C-46.14788221 5.3355167 -46.14788221 5.3355167 -41 4 C-38.98135363 3.84360559 -36.95975719 3.72433895 -34.9375 3.625 C-28.34764344 3.208007 -21.96595306 2.25501467 -15.48217773 1.01611328 C-10.24662012 0.05773199 -5.32447073 -0.12089124 0 0 Z " fill="#757676" transform="translate(574,585)"/>
<path d="M0 0 C1.31683338 2.63366676 1.02687545 4.94408708 0.9375 7.83203125 C0.93949921 10.01866756 0.93949921 10.01866756 1.44140625 12.1953125 C2.22425937 16.12600158 2.5590717 20.07512971 2.9375 24.0625 C3.11047564 25.84897785 3.28365898 27.6354356 3.45703125 29.421875 C3.54549316 30.33904297 3.63395508 31.25621094 3.72509766 32.20117188 C3.99743341 34.97386913 4.28341142 37.74480879 4.57421875 40.515625 C4.66646729 41.4037085 4.75871582 42.29179199 4.85375977 43.20678711 C5.03007395 44.90057763 5.20881363 46.59411804 5.39038086 48.28735352 C5.86353948 52.88790389 6.08644688 57.37509206 6 62 C4.07171717 59.10757576 3.71911287 58.28529613 3.42163086 55.03515625 C3.34492661 54.24423584 3.26822235 53.45331543 3.18919373 52.63842773 C3.11515823 51.78837158 3.04112274 50.93831543 2.96484375 50.0625 C2.88126114 49.18601807 2.79767853 48.30953613 2.71156311 47.40649414 C2.44556494 44.60501046 2.1909105 41.80264805 1.9375 39 C1.67882336 36.19754965 1.41773013 33.39536497 1.15272522 30.59350586 C0.98835637 28.84990783 0.82793827 27.10593194 0.67185974 25.36157227 C0.36697938 22.08313263 0.04508023 19.13524068 -1 16 C-1.09582087 13.44665565 -1.13939278 10.92731984 -1.125 8.375 C-1.12886719 7.68148438 -1.13273438 6.98796875 -1.13671875 6.2734375 C-1.12666646 1.12666646 -1.12666646 1.12666646 0 0 Z " fill="#807B7B" transform="translate(654,425)"/>
<path d="M0 0 C0.33 0 0.66 0 1 0 C3.01167675 5.78357065 3.22084624 10.90218999 3 17 C3.66 17 4.32 17 5 17 C5 20.63 5 24.26 5 28 C5.66 28 6.32 28 7 28 C8.59162079 33.57067277 9.20674944 38.21101581 9 44 C9.66 44 10.32 44 11 44 C11 46.64 11 49.28 11 52 C10.67 52 10.34 52 10 52 C8.52393606 47.15007562 7.45409107 42.32688397 6.5078125 37.34765625 C6.01856696 34.83561788 6.01856696 34.83561788 4.875 31.875 C3.72800654 28.10630721 3.86448255 24.93000618 4 21 C3.34 21 2.68 21 2 21 C0.79556805 13.94546999 -0.28100502 7.16562789 0 0 Z " fill="#979697" transform="translate(322,499)"/>
<path d="M0 0 C2.21399303 3.79541663 3.00980198 7.75629421 4 12 C5.32 11.67 6.64 11.34 8 11 C7.01 14.96 6.02 18.92 5 23 C4.01 23 3.02 23 2 23 C1.66324721 20.10452736 1.33048266 17.20868928 1 14.3125 C0.90460938 13.49587891 0.80921875 12.67925781 0.7109375 11.83789062 C0.26129478 7.87139948 -0.13034543 3.99997537 0 0 Z " fill="#BAB9BA" transform="translate(378,474)"/>
<path d="M0 0 C0 0.33 0 0.66 0 1 C-7.93224916 2.70206156 -15.7116562 4.27255994 -23.828125 4.7890625 C-26.17955857 4.93594175 -26.17955857 4.93594175 -29 6 C-31.56634861 6.22718496 -34.11678107 6.41608184 -36.6875 6.5625 C-37.7403418 6.62727539 -37.7403418 6.62727539 -38.81445312 6.69335938 C-40.54275206 6.7991736 -42.2713511 6.90006581 -44 7 C-40.81493604 4.87662403 -39.80211428 4.74253675 -36.125 4.5625 C-31.75336745 4.24487808 -27.69478691 3.54290934 -23.4375 2.5 C-15.61115422 0.5967961 -8.04029312 -0.17478898 0 0 Z " fill="#9D9C9B" transform="translate(487,581)"/>
<path d="M0 0 C0.33 0 0.66 0 1 0 C1.125 7.75 1.125 7.75 0 10 C-0.18495153 12.81537335 -0.32621342 15.61918878 -0.4375 18.4375 C-0.76022781 25.42877423 -1.4476791 32.15773118 -3 39 C-3.33 39 -3.66 39 -4 39 C-4.02703381 37.06257659 -4.04641125 35.12504521 -4.0625 33.1875 C-4.07410156 32.10855469 -4.08570313 31.02960937 -4.09765625 29.91796875 C-4 27 -4 27 -3 24 C-2.87772484 22.66322807 -2.79975208 21.32203819 -2.75390625 19.98046875 C-2.72103516 19.20509766 -2.68816406 18.42972656 -2.65429688 17.63085938 C-2.59354398 16.0137982 -2.53620098 14.39660499 -2.48242188 12.77929688 C-2.28057385 8.17487687 -1.72550364 4.33820955 0 0 Z " fill="#6D696B" transform="translate(233,512)"/>
<path d="M0 0 C0 0.33 0 0.66 0 1 C-8.49893187 3.58663144 -16.88164858 5.13664884 -25.75 5.75390625 C-28.03305818 5.87181477 -28.03305818 5.87181477 -30 7 C-32.6723621 7.13415472 -35.32250488 7.04318541 -38 7 C-38 6.67 -38 6.34 -38 6 C-37.44650879 5.88930176 -36.89301758 5.77860352 -36.32275391 5.66455078 C-35.54851074 5.50970215 -34.77426758 5.35485352 -33.9765625 5.1953125 C-32.19270833 4.83854167 -30.40885417 4.48177083 -28.625 4.125 C-27.75488281 3.95097656 -26.88476562 3.77695312 -25.98828125 3.59765625 C-24.21976384 3.24395277 -22.45104343 2.89126289 -20.68212891 2.53955078 C-18.87549085 2.17611822 -17.07047666 1.8045294 -15.26708984 1.42529297 C-14.3952002 1.24369629 -13.52331055 1.06209961 -12.625 0.875 C-11.84640625 0.71 -11.0678125 0.545 -10.265625 0.375 C-6.80533377 -0.19773786 -3.49973237 -0.12961972 0 0 Z " fill="#7C7B7A" transform="translate(441,588)"/>
<path d="M0 0 C-7.04863338 1.75663434 -13.91271127 3.2973127 -21.171875 3.7890625 C-23.01727269 3.81014112 -23.01727269 3.81014112 -24 5 C-26.67058851 5.14115161 -29.32432238 5.04247107 -32 5 C-32 4.67 -32 4.34 -32 4 C-26.51324804 2.13216954 -21.77807024 1.7641604 -16 2 C-16 1.34 -16 0.68 -16 0 C-14.08416353 -0.1958009 -12.16727461 -0.38132214 -10.25 -0.5625 C-8.64898437 -0.71912109 -8.64898437 -0.71912109 -7.015625 -0.87890625 C-4.35858796 -0.98560074 -2.50039428 -0.81930395 0 0 Z " fill="#7E7E7F" transform="translate(446,604)"/>
<path d="M0 0 C-4.93966191 1.062182 -9.7660195 2.0266739 -14.8125 2.375 C-18.90997419 2.75868575 -20.972361 4.15585427 -24 7 C-24.66 7 -25.32 7 -26 7 C-26 8.98 -26 10.96 -26 13 C-26.33 13 -26.66 13 -27 13 C-27.49065421 6.62149533 -27.49065421 6.62149533 -25.125 3.625 C-21.22681425 0.64403442 -17.37711699 0.43546562 -12.625 -0.125 C-11.85671875 -0.22425781 -11.0884375 -0.32351563 -10.296875 -0.42578125 C-9.55179688 -0.51472656 -8.80671875 -0.60367187 -8.0390625 -0.6953125 C-7.36053223 -0.77797363 -6.68200195 -0.86063477 -5.98291016 -0.94580078 C-3.81441038 -1.00507275 -2.07153351 -0.61526687 0 0 Z " fill="#6A6A6C" transform="translate(786,430)"/>
<path d="M0 0 C3.05217202 3.05217202 2.29370006 6.09440831 2.32226562 10.26757812 C2.31904297 11.35490234 2.31582031 12.44222656 2.3125 13.5625 C2.32861328 14.62275391 2.34472656 15.68300781 2.36132812 16.77539062 C2.36541715 23.40369498 1.57974786 28.87712511 -1 35 C-2.18654404 30.61322632 -1.73593573 27.48920796 -1 23 C-0.67 22.67 -0.34 22.34 0 22 C0.08700342 20.36527118 0.10701063 18.72685945 0.09765625 17.08984375 C0.09443359 16.10048828 0.09121094 15.11113281 0.08789062 14.09179688 C0.07951172 13.05087891 0.07113281 12.00996094 0.0625 10.9375 C0.05798828 9.89271484 0.05347656 8.84792969 0.04882812 7.77148438 C0.03699913 5.1809334 0.02051689 2.59049441 0 0 Z " fill="#3B3B39" transform="translate(621,407)"/>
<path d="M0 0 C0.33 0 0.66 0 1 0 C0.22095672 17.85649203 0.22095672 17.85649203 -2 26 C-2.33 26 -2.66 26 -3 26 C-2.88529624 22.97846145 -2.7585615 19.95821599 -2.625 16.9375 C-2.5940625 16.08994141 -2.563125 15.24238281 -2.53125 14.36914062 C-2.29468217 9.26321829 -1.61955494 4.85208127 0 0 Z " fill="#939291" transform="translate(258,436)"/>
<path d="M0 0 C-2.66705795 2.66705795 -4.28520259 2.35264967 -8 2.5625 C-12.15326204 2.69920211 -12.15326204 2.69920211 -16 4 C-17.70702735 4.06996014 -19.41668003 4.08440154 -21.125 4.0625 C-22.03507812 4.05347656 -22.94515625 4.04445313 -23.8828125 4.03515625 C-24.58148438 4.02355469 -25.28015625 4.01195312 -26 4 C-18.4612714 -0.34435207 -8.49110349 -0.28783402 0 0 Z " fill="#8C8B8B" transform="translate(525,576)"/>
<path d="M0 0 C2.48044315 3.72066472 2.44381173 6.86540474 2.625 11.1875 C2.66367187 11.93708984 2.70234375 12.68667969 2.7421875 13.45898438 C2.83628216 15.30559199 2.91922319 17.1527619 3 19 C3.66 19 4.32 19 5 19 C5.33 18.34 5.66 17.68 6 17 C5.125 21.75 5.125 21.75 4 24 C3.34 24 2.68 24 2 24 C1.04831317 21.14493951 0.8099054 19.09062718 0.68359375 16.11328125 C0.64169922 15.17548828 0.59980469 14.23769531 0.55664062 13.27148438 C0.51732422 12.29501953 0.47800781 11.31855469 0.4375 10.3125 C0.39431641 9.32443359 0.35113281 8.33636719 0.30664062 7.31835938 C0.20058346 4.87904454 0.09852286 2.43962887 0 0 Z " fill="#AFAFAF" transform="translate(670,439)"/>
<path d="M0 0 C1.24659153 3.62565001 0.78926902 6.45212423 0.125 10.1875 C-0.14957031 11.78658203 -0.14957031 11.78658203 -0.4296875 13.41796875 C-1 16 -1 16 -2 17 C-2.23075082 18.34747084 -2.41153063 19.70377565 -2.5625 21.0625 C-2.706875 22.361875 -2.85125 23.66125 -3 25 C-3.33 25 -3.66 25 -4 25 C-4.02685938 22.85423363 -4.04633088 20.70837355 -4.0625 18.5625 C-4.07410156 17.36753906 -4.08570313 16.17257812 -4.09765625 14.94140625 C-4 12 -4 12 -3 11 C-2.7180604 8.71315662 -2.55222995 6.42636727 -2.37890625 4.12890625 C-2 2 -2 2 0 0 Z " fill="#6B6A69" transform="translate(266,391)"/>
<path d="M0 0 C1.31683338 2.63366676 1.02687545 4.94408708 0.9375 7.83203125 C0.93293915 10.02963402 0.93293915 10.02963402 1.49609375 12.2421875 C2.1708842 15.93522671 2.10593034 19.57415019 2.0625 23.3125 C2.05798828 24.05306641 2.05347656 24.79363281 2.04882812 25.55664062 C2.03712175 27.37112899 2.01918898 29.18557534 2 31 C1.67 31 1.34 31 1 31 C0.93941406 30.16855469 0.87882813 29.33710938 0.81640625 28.48046875 C0.73261719 27.39378906 0.64882813 26.30710937 0.5625 25.1875 C0.48128906 24.10855469 0.40007813 23.02960938 0.31640625 21.91796875 C0.09787539 18.94010095 0.09787539 18.94010095 -1 16 C-1.09582087 13.44665565 -1.13939278 10.92731984 -1.125 8.375 C-1.12886719 7.68148438 -1.13273438 6.98796875 -1.13671875 6.2734375 C-1.12666646 1.12666646 -1.12666646 1.12666646 0 0 Z " fill="#949190" transform="translate(654,425)"/>
<path d="M0 0 C-3.08800083 3.08800083 -5.92750969 3.14735588 -10.10546875 3.31640625 C-11.08837891 3.35830078 -12.07128906 3.40019531 -13.08398438 3.44335938 C-14.62022461 3.50233398 -14.62022461 3.50233398 -16.1875 3.5625 C-17.22326172 3.60568359 -18.25902344 3.64886719 -19.32617188 3.69335938 C-21.8839819 3.79944366 -24.44188845 3.90150146 -27 4 C-27 3.67 -27 3.34 -27 3 C-25.79601562 2.86722656 -24.59203125 2.73445312 -23.3515625 2.59765625 C-21.77601915 2.4194698 -20.20049953 2.2410735 -18.625 2.0625 C-17.8309375 1.97548828 -17.036875 1.88847656 -16.21875 1.79882812 C-0.4344159 -0.00700671 -0.4344159 -0.00700671 0 0 Z " fill="#A1A19F" transform="translate(633,578)"/>
<path d="M0 0 C0.73605469 0.00451172 1.47210937 0.00902344 2.23046875 0.01367188 C4.02868158 0.02534858 5.82685197 0.04327989 7.625 0.0625 C7.625 0.3925 7.625 0.7225 7.625 1.0625 C6.78195312 1.12308594 5.93890625 1.18367187 5.0703125 1.24609375 C3.97460938 1.32988281 2.87890625 1.41367187 1.75 1.5 C0.65945313 1.58121094 -0.43109375 1.66242187 -1.5546875 1.74609375 C-4.32228971 1.89251703 -4.32228971 1.89251703 -6.375 3.0625 C-8.41555005 3.13315617 -10.45834257 3.14671976 -12.5 3.125 C-13.59570312 3.11597656 -14.69140625 3.10695313 -15.8203125 3.09765625 C-17.08488281 3.08025391 -17.08488281 3.08025391 -18.375 3.0625 C-12.60938366 -0.26381712 -6.45439454 -0.0758654 0 0 Z " fill="#9D9E9D" transform="translate(529.375,590.9375)"/>
<path d="M0 0 C0.66 0 1.32 0 2 0 C1.37987481 2.73035701 0.75409113 5.45920764 0.125 8.1875 C-0.04902344 8.95642578 -0.22304688 9.72535156 -0.40234375 10.51757812 C-1.32545044 14.50061254 -2.33072186 18.24788383 -4 22 C-5.54578627 18.90842747 -4.60277633 16.31526981 -4 13 C-3.67 12.67 -3.34 12.34 -3 12 C-2.63239269 9.67182036 -2.29758419 7.3381615 -2 5 C-1.34 5 -0.68 5 0 5 C0 3.35 0 1.7 0 0 Z " fill="#6A6967" transform="translate(683,482)"/>
<path d="M0 0 C0.69480469 0.16242187 1.38960938 0.32484375 2.10546875 0.4921875 C9.93322279 1.86547768 18.18414038 1.2260172 26 0 C24.3873915 1.93570602 23.49810536 2.9082485 20.97875977 3.37231445 C20.22393311 3.3693335 19.46910645 3.36635254 18.69140625 3.36328125 C17.86189453 3.36263672 17.03238281 3.36199219 16.17773438 3.36132812 C14.88319336 3.3371582 14.88319336 3.3371582 13.5625 3.3125 C12.70333984 3.31572266 11.84417969 3.31894531 10.95898438 3.32226562 C6.68638089 3.28580431 3.77856574 3.15252384 0 1 C0 0.67 0 0.34 0 0 Z " fill="#787878" transform="translate(493,536)"/>
<path d="M0 0 C2.25098557 3.37647836 2.72316716 5.84811937 3.5 9.8125 C4.21359252 13.43087948 4.94388411 16.83866683 6.15625 20.32421875 C7 23 7 23 6 25 C3.51709454 20.50712346 2.26611669 16.41049979 1.3125 11.375 C1.06113281 10.08335937 0.80976563 8.79171875 0.55078125 7.4609375 C0 4 0 4 0 0 Z " fill="#817F7F" transform="translate(437,505)"/>
<path d="M0 0 C0.33 0 0.66 0 1 0 C3.4420792 6.83782175 3.62022758 13.79431807 4 21 C3.34 21 2.68 21 2 21 C0.79556805 13.94546999 -0.28100502 7.16562789 0 0 Z " fill="#787675" transform="translate(322,499)"/>
<path d="M0 0 C0.33 0 0.66 0 1 0 C1.22786458 2.05078125 1.45572917 4.1015625 1.68359375 6.15234375 C1.81886614 8.01140229 1.81886614 8.01140229 3 9 C3.23653523 11.52596259 3.42173692 14.03107207 3.5625 16.5625 C3.60568359 17.27341797 3.64886719 17.98433594 3.69335938 18.71679688 C3.79971777 20.47761912 3.90038846 22.2387832 4 24 C1.96934169 20.95401253 1.70517596 19.87187319 1.4375 16.375 C1.41022777 13.38885578 1.41022777 13.38885578 0 11 C-0.07226502 9.14712498 -0.0838122 7.29166122 -0.0625 5.4375 C-0.05347656 4.42558594 -0.04445313 3.41367187 -0.03515625 2.37109375 C-0.02355469 1.58863281 -0.01195312 0.80617188 0 0 Z " fill="#8D8B8B" transform="translate(368,520)"/>
<path d="M0 0 C0.33 0 0.66 0 1 0 C1.23268915 6.28260706 0.40454548 11.88019467 -1 18 C-1.33 18 -1.66 18 -2 18 C-2.3690205 5.33029613 -2.3690205 5.33029613 0 0 Z " fill="#928F90" transform="translate(233,512)"/>
<path d="M0 0 C2.6875 -0.3125 2.6875 -0.3125 5 0 C5 0.66 5 1.32 5 2 C3.34928604 3.02611949 1.68029994 4.02308143 0 5 C-2.40879165 7.06467856 -2.96331553 7.88994659 -4 11 C-4.66 10.67 -5.32 10.34 -6 10 C-5 8.33333333 -4 6.66666667 -3 5 C-2.54625 4.071875 -2.0925 3.14375 -1.625 2.1875 C-1.08875 1.465625 -0.5525 0.74375 0 0 Z " fill="#C3C4C5" transform="translate(706,429)"/>
<path d="M0 0 C1.3823443 2.7646886 0.74413417 4.42206452 0.1875 7.4375 C0.01605469 8.40558594 -0.15539062 9.37367188 -0.33203125 10.37109375 C-1 13 -1 13 -3 16 C-3.33266291 9.79029227 -2.45029331 5.71735105 0 0 Z " fill="#99999A" transform="translate(273,356)"/>
<path d="M0 0 C-4.00996859 2.07412169 -7.15394977 3.12820363 -11.6875 3.0625 C-12.89986328 3.04896484 -12.89986328 3.04896484 -14.13671875 3.03515625 C-15.05904297 3.01775391 -15.05904297 3.01775391 -16 3 C-16 2.67 -16 2.34 -16 2 C-10.42932723 0.40837921 -5.78898419 -0.20674944 0 0 Z " fill="#AAA9A8" transform="translate(391,613)"/>
<path d="M0 0 C0.66 0 1.32 0 2 0 C0.71480435 2.86697492 -0.57129254 4.97607712 -3 7 C-3.66 7 -4.32 7 -5 7 C-5.33 7.99 -5.66 8.98 -6 10 C-6.33 9.34 -6.66 8.68 -7 8 C-5.88200014 6.66079162 -4.75538103 5.32877444 -3.625 4 C-2.68527344 2.88625 -2.68527344 2.88625 -1.7265625 1.75 C-1.15679687 1.1725 -0.58703125 0.595 0 0 Z " fill="#49494B" transform="translate(404,446)"/>
<path d="M0 0 C0.86625 0.37125 0.86625 0.37125 1.75 0.75 C-3 4.75 -3 4.75 -5.25 4.75 C-5.25 6.73 -5.25 8.71 -5.25 10.75 C-5.58 10.75 -5.91 10.75 -6.25 10.75 C-6.73514851 4.44306931 -6.73514851 4.44306931 -4.5 1.25 C-2.25 -0.25 -2.25 -0.25 0 0 Z " fill="#3E3F3E" transform="translate(765.25,432.25)"/>
<path d="M0 0 C0.66 0 1.32 0 2 0 C1.343621 4.48525648 0.29925791 8.66914029 -1 13 C-2.53617912 8.90352234 -1.69045256 5.21176063 -1 1 C-0.67 0.67 -0.34 0.34 0 0 Z " fill="#585A58" transform="translate(621,429)"/>
<path d="M0 0 C0.90105469 0.02707031 1.80210937 0.05414062 2.73046875 0.08203125 C3.76107422 0.13423828 3.76107422 0.13423828 4.8125 0.1875 C4.8125 0.5175 4.8125 0.8475 4.8125 1.1875 C-3.61607143 3.47321429 -3.61607143 3.47321429 -8.1875 3.1875 C-5.67753317 0.01043235 -3.96125134 -0.15433447 0 0 Z " fill="#827E80" transform="translate(251.1875,623.8125)"/>
<path d="M0 0 C2.1991413 4.39828259 2.51855059 7.18550592 3 12 C2.67 11.34 2.34 10.68 2 10 C1.34 10 0.68 10 0 10 C0 6.7 0 3.4 0 0 Z " fill="#9D9A9B" transform="translate(314,538)"/>
</svg>
